<svg width="200" height="56" viewBox="0 0 200 56" fill="none" xmlns="http://www.w3.org/2000/svg">
<path d="M25.7749 7.71872C29.6171 7.71872 32.887 8.49533 35.5847 10.0485C38.2823 11.5609 40.326 13.7681 41.7158 16.6701C43.1463 19.5313 43.8616 23.0056 43.8616 27.093C43.8616 31.4256 43.0646 35.1656 41.4705 38.3129C39.8764 41.4193 37.567 43.8104 34.5424 45.4863C31.5586 47.1621 27.9821 48 23.813 48H1.31185V44.3213C2.08846 43.9535 2.90594 43.6265 3.76429 43.3404C4.62264 43.0134 5.56275 42.7068 6.58459 42.4207L7.32033 13.4819L1.31185 11.7652V7.71872H25.7749ZM26.8172 41.3784C28.6974 40.3566 30.0871 38.7829 30.9863 36.6575C31.8856 34.532 32.3352 31.6913 32.3352 28.1353C32.3352 25.0288 32.0695 22.5764 31.5381 20.7779C31.0477 18.9386 30.3732 17.5693 29.5149 16.6701C28.6565 15.7709 27.7369 15.1782 26.7559 14.8921C25.7749 14.5651 24.8348 14.4016 23.9356 14.4016H13.2675L18.0497 9.68067V46.0994L13.2675 41.3784H26.8172ZM79.6988 33.4693H84.0519V48H45.9778V44.3213C46.877 43.9126 47.7558 43.5652 48.6142 43.2791C49.4725 42.9521 50.3513 42.6659 51.2506 42.4207L51.9863 13.4819L45.9778 11.7652V7.71872H83.5001V21.1458H79.0857L76.388 14.279H57.9335L62.6544 9.55805V24.3953H69.276L71.3605 19.797H75.2844V35.6152H71.3605L69.2147 30.8943H62.6544V46.1607L57.9335 41.3784H76.8172L79.6988 33.4693ZM89.7131 48V43.6469L111.356 14.0337L98.4806 14.4629L95.4763 23.4143H90.5715V7.71872H125.764V12.0718L104.182 41.7463L117.855 41.0719L120.736 32.5496H125.457L125.641 48H89.7131ZM154.464 48V44.3213C155.282 43.9126 156.058 43.5652 156.794 43.2791C157.571 42.9521 158.368 42.6659 159.185 42.4207L159.921 13.4819L154.464 11.7652V7.71872H175.8V11.3974C175.024 11.7652 174.186 12.1127 173.287 12.4397C172.428 12.7667 171.529 13.0732 170.589 13.3593V42.6046L175.8 43.8922V48H154.464ZM128.836 48V44.3213C129.695 43.9126 130.553 43.5652 131.411 43.2791C132.27 42.9521 133.148 42.6659 134.048 42.4207L134.783 13.4819L128.836 11.7652V7.71872H150.234V11.3974C149.498 11.7652 148.721 12.1127 147.904 12.4397C147.086 12.7667 146.269 13.0732 145.451 13.3593V42.6046L150.234 43.8922V48H128.836ZM140.117 31.3847V24.8245H165.194V31.3847H140.117ZM177.641 48V44.3213C178.54 43.9126 179.419 43.5652 180.277 43.2791C181.135 42.9521 182.014 42.6659 182.913 42.4207L183.649 13.4819L177.641 11.7652V7.71872H199.467V11.3974C198.691 11.7652 197.853 12.1127 196.954 12.4397C196.095 12.7667 195.216 13.0732 194.317 13.3593V42.6046L199.467 43.8922V48H177.641Z" fill="#2563EB"/>
</svg>
