<svg width="143" height="28" viewBox="0 0 143 28" fill="none" xmlns="http://www.w3.org/2000/svg">
<path d="M14.8019 28H1.99586C1.51453 28 1.15986 27.8987 0.93186 27.696C0.729193 27.468 0.62786 27.1133 0.62786 26.632V2.008C0.62786 1.52667 0.729193 1.18467 0.93186 0.981999C1.15986 0.753999 1.51453 0.639999 1.99586 0.639999H14.8019C17.9685 0.639999 20.3119 1.27333 21.8319 2.54C23.3772 3.80667 24.1499 5.75733 24.1499 8.392V20.248C24.1499 22.8827 23.3772 24.8333 21.8319 26.1C20.3119 27.3667 17.9685 28 14.8019 28ZM9.25386 7.898V20.818H13.7759C14.3839 20.818 14.8272 20.666 15.1059 20.362C15.4099 20.058 15.5619 19.5893 15.5619 18.956V9.722C15.5619 9.08867 15.4099 8.63267 15.1059 8.354C14.8272 8.05 14.3839 7.898 13.7759 7.898H9.25386ZM47.9794 28H30.3474C29.8661 28 29.5114 27.8987 29.2834 27.696C29.0808 27.468 28.9794 27.1133 28.9794 26.632V2.008C28.9794 1.52667 29.0808 1.18467 29.2834 0.981999C29.5114 0.753999 29.8661 0.639999 30.3474 0.639999H47.9794C48.4608 0.639999 48.8028 0.753999 49.0054 0.981999C49.2334 1.18467 49.3474 1.52667 49.3474 2.008V6.454C49.3474 6.93533 49.2334 7.29 49.0054 7.518C48.8028 7.72067 48.4608 7.822 47.9794 7.822H37.4914V10.748H44.9014C45.3828 10.748 45.7248 10.862 45.9274 11.09C46.1554 11.2927 46.2694 11.6347 46.2694 12.116V16.182C46.2694 16.6633 46.1554 17.018 45.9274 17.246C45.7248 17.4487 45.3828 17.55 44.9014 17.55H37.4914V20.818H47.9794C48.4608 20.818 48.8028 20.932 49.0054 21.16C49.2334 21.3627 49.3474 21.7047 49.3474 22.186V26.632C49.3474 27.1133 49.2334 27.468 49.0054 27.696C48.8028 27.8987 48.4608 28 47.9794 28ZM61.1007 28H55.2107C54.7294 28 54.3747 27.8987 54.1467 27.696C53.944 27.468 53.8427 27.1133 53.8427 26.632V2.008C53.8427 1.52667 53.944 1.18467 54.1467 0.981999C54.3747 0.753999 54.7294 0.639999 55.2107 0.639999H66.8387C70.284 0.639999 72.64 1.324 73.9067 2.692C75.1734 4.06 75.8067 5.846 75.8067 8.05V12.914C75.8067 15.118 75.1734 16.904 73.9067 18.272C72.64 19.64 70.284 20.324 66.8387 20.324H62.4687V26.632C62.4687 27.1133 62.3547 27.468 62.1267 27.696C61.924 27.8987 61.582 28 61.1007 28ZM62.3927 7.746V13.484H65.8127C66.5474 13.484 67.0287 13.294 67.2567 12.914C67.4847 12.534 67.5987 12.1033 67.5987 11.622V9.608C67.5987 9.12667 67.4847 8.696 67.2567 8.316C67.0287 7.936 66.5474 7.746 65.8127 7.746H62.3927ZM87.915 26.632C87.915 27.1133 87.801 27.468 87.573 27.696C87.3704 27.8987 87.0284 28 86.547 28H80.771C80.2897 28 79.935 27.8987 79.707 27.696C79.5044 27.468 79.403 27.1133 79.403 26.632V22.566C79.403 21.4007 79.5044 20.5267 79.707 19.944C79.9097 19.3613 80.2897 18.6773 80.847 17.892L83.925 13.75L80.847 9.608C80.2644 8.82267 79.8717 8.13866 79.669 7.556C79.4917 6.97333 79.403 6.09933 79.403 4.934V2.008C79.403 1.52667 79.5044 1.18467 79.707 0.981999C79.935 0.753999 80.2897 0.639999 80.771 0.639999H86.623C87.1044 0.639999 87.4464 0.753999 87.649 0.981999C87.877 1.18467 87.991 1.52667 87.991 2.008V4.63C87.991 4.88333 88.0037 5.14933 88.029 5.428C88.0544 5.70667 88.1557 5.97267 88.333 6.226L90.005 8.62C90.1317 8.82267 90.2584 8.98733 90.385 9.114C90.537 9.21533 90.7144 9.266 90.917 9.266H91.373C91.5757 9.266 91.7404 9.21533 91.867 9.114C91.9937 8.98733 92.133 8.82267 92.285 8.62L93.995 6.226C94.1724 5.97267 94.2737 5.70667 94.299 5.428C94.3244 5.14933 94.337 4.88333 94.337 4.63V2.008C94.337 1.52667 94.4384 1.18467 94.641 0.981999C94.869 0.753999 95.2237 0.639999 95.705 0.639999H101.481C101.962 0.639999 102.304 0.753999 102.507 0.981999C102.735 1.18467 102.849 1.52667 102.849 2.008V4.934C102.849 6.09933 102.748 6.97333 102.545 7.556C102.342 8.13866 101.962 8.82267 101.405 9.608L98.327 13.788L101.405 17.892C101.988 18.6773 102.368 19.3613 102.545 19.944C102.748 20.5267 102.849 21.4007 102.849 22.566V26.632C102.849 27.1133 102.735 27.468 102.507 27.696C102.304 27.8987 101.962 28 101.481 28H95.705C95.2237 28 94.869 27.8987 94.641 27.696C94.4384 27.468 94.337 27.1133 94.337 26.632V22.87C94.337 22.6167 94.3244 22.3507 94.299 22.072C94.2737 21.7933 94.1724 21.5273 93.995 21.274L92.323 18.88C92.171 18.652 92.0317 18.4873 91.905 18.386C91.7784 18.2847 91.6137 18.234 91.411 18.234H90.879C90.6764 18.234 90.5117 18.2847 90.385 18.386C90.2584 18.4873 90.119 18.652 89.967 18.88L88.257 21.274C88.0797 21.5273 87.9784 21.7933 87.953 22.072C87.9277 22.3507 87.915 22.6167 87.915 22.87V26.632ZM116.275 28H108.599C108.117 28 107.763 27.8987 107.535 27.696C107.332 27.468 107.231 27.1133 107.231 26.632V18.918C107.231 18.4367 107.332 18.0947 107.535 17.892C107.763 17.664 108.117 17.55 108.599 17.55H116.275C116.756 17.55 117.098 17.664 117.301 17.892C117.529 18.0947 117.643 18.4367 117.643 18.918V26.632C117.643 27.1133 117.529 27.468 117.301 27.696C117.098 27.8987 116.756 28 116.275 28ZM140.701 28H122.613C122.131 28 121.777 27.8987 121.549 27.696C121.346 27.468 121.245 27.1133 121.245 26.632V20.096C121.245 18.6267 121.384 17.4233 121.663 16.486C121.967 15.5233 122.385 14.738 122.917 14.13C123.449 13.522 124.082 13.0407 124.817 12.686C125.551 12.3313 126.349 12.0273 127.211 11.774L132.303 10.178C132.708 10.0767 132.974 9.92467 133.101 9.722C133.253 9.51933 133.329 9.21533 133.329 8.81C133.329 8.43 133.253 8.17667 133.101 8.05C132.949 7.898 132.683 7.822 132.303 7.822H124.057C123.575 7.822 123.221 7.72067 122.993 7.518C122.79 7.29 122.689 6.93533 122.689 6.454V2.008C122.689 1.52667 122.79 1.18467 122.993 0.981999C123.221 0.753999 123.575 0.639999 124.057 0.639999H135.267C137.42 0.639999 139.067 1.18467 140.207 2.274C141.372 3.338 141.955 4.896 141.955 6.948V10.52C141.955 12.42 141.423 13.8767 140.359 14.89C139.295 15.9033 137.851 16.6887 136.027 17.246L130.859 18.88C130.479 18.9813 130.213 19.0953 130.061 19.222C129.934 19.3487 129.871 19.6147 129.871 20.02V20.818H140.701C141.182 20.818 141.524 20.932 141.727 21.16C141.955 21.3627 142.069 21.7047 142.069 22.186V26.632C142.069 27.1133 141.955 27.468 141.727 27.696C141.524 27.8987 141.182 28 140.701 28Z" fill="#0057FF"/>
</svg>
