<svg width="60" height="28" viewBox="0 0 60 28" fill="none" xmlns="http://www.w3.org/2000/svg">
<path d="M0.579859 28V0.944H6.31786C8.54719 0.944 10.2319 1.552 11.3719 2.768C12.5372 3.984 13.1199 5.70667 13.1199 7.936V20.59C13.1199 23.1233 12.4992 24.998 11.2579 26.214C10.0419 27.4047 8.28119 28 5.97586 28H0.579859ZM4.45586 4.592V24.352H6.24186C7.33119 24.352 8.10386 24.086 8.55986 23.554C9.01586 22.9967 9.24386 22.1353 9.24386 20.97V7.936C9.24386 6.872 9.02853 6.04866 8.59786 5.466C8.16719 4.88333 7.38186 4.592 6.24186 4.592H4.45586ZM16.7595 28V0.944H28.3115V4.592H20.6355V12.534H27.3235V16.182H20.6355V24.124H28.3115V28H16.7595ZM30.824 28V0.944H36.638C37.702 0.944 38.6393 1.08333 39.45 1.362C40.2607 1.64066 40.9953 2.13466 41.654 2.844C42.3127 3.55333 42.7687 4.38933 43.022 5.352C43.2753 6.28933 43.402 7.56867 43.402 9.19C43.402 10.406 43.326 11.432 43.174 12.268C43.0473 13.104 42.756 13.8893 42.3 14.624C41.768 15.5107 41.0587 16.2073 40.172 16.714C39.2853 17.1953 38.12 17.436 36.676 17.436H34.7V28H30.824ZM34.7 4.592V13.788H36.562C37.3473 13.788 37.9553 13.674 38.386 13.446C38.8167 13.218 39.1333 12.9013 39.336 12.496C39.5387 12.116 39.6527 11.6473 39.678 11.09C39.7287 10.5327 39.754 9.912 39.754 9.228C39.754 8.59467 39.7413 7.99933 39.716 7.442C39.6907 6.85933 39.5767 6.35267 39.374 5.922C39.1713 5.49133 38.8673 5.162 38.462 4.934C38.0567 4.706 37.474 4.592 36.714 4.592H34.7ZM44.3986 28L49.8706 13.826L44.8166 0.944H48.9206L51.8466 8.962L54.8106 0.944H58.9146L53.7466 13.826L59.3326 28H55.2286L51.8466 18.88L48.5026 28H44.3986Z" fill="#0057FF"/>
</svg>
